<svg width="600" height="600" viewBox="0 0 600 600" fill="none" xmlns="http://www.w3.org/2000/svg">
<g clip-path="url(#clip0_1559_8)">
<rect width="600" height="600" rx="2" fill="white"/>
<path d="M600 600V0L0 0V600H600Z" fill="#3219A2"/>
<path d="M154.996 407.366H75.2461V431.925H154.996V407.366Z" fill="#FF3700"/>
<path d="M234.744 407.366H154.994V431.924H234.744V407.366Z" fill="#00D1FF"/>
<path d="M314.494 407.366H234.744V431.925H314.494V407.366Z" fill="#FFBFEA"/>
<path d="M394.246 407.366H314.496V431.925H394.246V407.366Z" fill="#FFF500"/>
<path d="M75.6718 172.972H90.6844V234.679H126.508V249.174H75.6718V172.972ZM133.406 249.174L167.779 169.97H168.608L202.981 249.174H185.587L163.638 193.472L174.509 186.018L148.211 249.174H133.406ZM156.908 221.634H179.789L185.07 234.265H152.249L156.908 221.634ZM237.178 172.972C241.94 172.972 246.185 173.593 249.913 174.836C253.64 176.009 256.746 177.735 259.231 180.013C261.785 182.221 263.717 184.913 265.029 188.088C266.34 191.194 266.996 194.715 266.996 198.649C266.996 201.755 266.513 204.861 265.546 207.967C264.649 211.073 263.131 213.903 260.991 216.457C258.92 219.011 256.159 221.082 252.708 222.669C249.257 224.188 244.977 224.947 239.87 224.947H229.102V249.174H214.089V172.972H237.178ZM239.766 210.452C242.044 210.452 243.942 210.072 245.461 209.313C246.979 208.554 248.153 207.587 248.981 206.414C249.878 205.241 250.499 204.033 250.844 202.79C251.259 201.479 251.466 200.271 251.466 199.167C251.466 198.338 251.328 197.303 251.051 196.061C250.844 194.749 250.361 193.438 249.602 192.126C248.843 190.815 247.669 189.71 246.082 188.813C244.563 187.916 242.493 187.467 239.87 187.467H229.102V210.452H239.766ZM253.847 219.77L272.69 249.174H255.193L235.935 220.184L253.847 219.77ZM276.474 249.174L310.848 169.97H311.676L346.05 249.174H328.656L306.707 193.472L317.578 186.018L291.28 249.174H276.474ZM299.977 221.634H322.858L328.138 234.265H295.318L299.977 221.634ZM357.225 172.972L379.485 227.846L370.788 226.086L390.978 172.972H408.786L373.998 252.694L339.21 172.972H357.225ZM421.969 172.972H473.943V187.467H436.981V203.722H469.698V218.217H436.981V234.679H475.393V249.174H421.969V172.972ZM490.925 172.972H505.937V234.679H541.761V249.174H490.925V172.972ZM75.6718 276.972H90.6844V338.679H126.508V353.174H75.6718V276.972ZM141.999 276.972H157.012V353.174H141.999V276.972ZM188.172 276.972L210.432 331.846L201.735 330.086L221.924 276.972H239.732L204.944 356.694L170.157 276.972H188.172ZM252.915 276.972H304.89V291.467H267.928V307.722H300.645V322.217H267.928V338.679H306.339V353.174H252.915V276.972ZM355.54 353.174V276.972H378.318C385.98 276.972 392.502 278.111 397.886 280.389C403.27 282.667 407.584 285.704 410.828 289.5C414.141 293.296 416.557 297.541 418.076 302.235C419.594 306.928 420.353 311.656 420.353 316.419C420.353 322.079 419.318 327.187 417.247 331.742C415.246 336.229 412.485 340.094 408.964 343.338C405.444 346.513 401.372 348.964 396.747 350.689C392.123 352.346 387.222 353.174 382.045 353.174H355.54ZM370.553 338.679H379.457C383.253 338.679 386.704 338.196 389.81 337.23C392.917 336.194 395.574 334.71 397.783 332.778C400.06 330.845 401.786 328.429 402.959 325.53C404.202 322.562 404.823 319.18 404.823 315.384C404.823 310.414 403.995 306.376 402.338 303.27C400.751 300.095 398.749 297.645 396.333 295.919C393.986 294.194 391.571 293.02 389.086 292.399C386.601 291.709 384.496 291.364 382.77 291.364H370.553V338.679ZM450.636 304.098L450.222 307.929L452.499 305.03L477.348 276.972H496.812L465.338 311.139L496.916 353.174H477.866L454.363 320.664L450.636 324.391V353.174H435.416V276.972H450.636V304.098Z" fill="white"/>
</g>
<rect x="0.5" y="0.5" width="599" height="599" rx="1.5" stroke="black" stroke-opacity="0.1"/>
<defs>
<clipPath id="clip0_1559_8">
<rect width="600" height="600" rx="2" fill="white"/>
</clipPath>
</defs>
</svg>
