<svg width="213" height="253" viewBox="0 0 213 253" fill="none" xmlns="http://www.w3.org/2000/svg">
<path d="M26.4805 74.5627C26.4805 74.5627 58.4205 102.473 73.4705 103.823C88.5205 105.173 82.1705 88.1127 82.1705 88.1127C82.1705 88.1127 54.9505 88.2827 36.9505 66.2427" fill="#FFEA00"/>
<path d="M75.1003 106.343C74.5103 106.343 73.8904 106.313 73.2504 106.253C57.5804 104.853 26.1904 77.5626 24.8604 76.4026L28.0904 72.7026C36.8104 80.3226 62.0004 100.323 73.6904 101.363C76.7604 101.633 78.8604 101.063 79.9404 99.6526C81.6604 97.4126 81.0203 93.0826 80.3503 90.4926C73.7304 90.1126 51.0704 87.3826 35.0504 67.7826L38.8503 64.6826C55.8103 85.4426 81.7504 85.6426 82.1604 85.6426H83.8704L84.4704 87.2426C84.8404 88.2426 87.9903 97.1826 83.8403 102.633C81.9603 105.103 79.0203 106.343 75.1003 106.343Z" fill="#3219A2"/>
<path d="M26.4302 75.7129C26.4302 75.7129 23.7602 82.9729 31.9202 82.2629C36.3102 81.8829 42.7602 69.9729 38.3702 65.4229C35.7002 62.6529 31.2002 63.1629 31.2002 63.1629L26.4302 75.7029V75.7129Z" fill="white"/>
<path d="M30.8602 84.3429C28.2702 84.3429 26.3602 83.5529 25.1702 81.9929C23.0602 79.2329 24.3702 75.4329 24.5302 75.0029C24.5302 75.0029 24.5302 74.9929 24.5302 74.9829L29.3002 62.4429C29.5702 61.7329 30.2202 61.2329 30.9702 61.1429C31.2002 61.1129 36.5002 60.5629 39.8302 64.0029C42.1602 66.4229 42.5102 70.4329 40.7902 75.0229C39.1502 79.3929 35.6402 83.9729 32.1002 84.2729C31.6702 84.3129 31.2602 84.3329 30.8602 84.3329V84.3429ZM28.3402 76.4129C28.1002 77.1029 27.8002 78.7529 28.4002 79.5329C28.8602 80.1329 30.0502 80.3829 31.7402 80.2329C32.9002 80.1329 35.5102 77.5029 36.9802 73.6029C38.1002 70.6329 38.0702 68.0329 36.9102 66.8329C35.6902 65.5729 33.8302 65.2429 32.6202 65.1829L28.3502 76.4129H28.3402Z" fill="#3219A2"/>
<path d="M19.0403 37.0128C19.0403 37.0128 17.2203 18.0828 32.5203 19.1728L32.6203 37.8728C32.6203 37.8728 41.1303 43.3328 35.7203 57.7428C35.7203 57.7428 37.3203 66.6128 31.5703 72.2128C25.8203 77.8128 12.8603 74.5728 8.28033 69.3028C3.70033 64.0328 13.1203 42.1028 13.1203 42.1028" fill="white"/>
<path d="M23.0603 77.1728C22.7603 77.1728 22.4503 77.1728 22.1403 77.1528C16.2003 76.9028 9.8703 74.2228 6.7503 70.6328C1.5903 64.7028 9.6003 45.1528 11.2503 41.2928C11.6903 40.2628 12.8903 39.7828 13.9203 40.2228C14.9503 40.6628 15.4303 41.8628 14.9903 42.8928C10.7003 52.8828 7.5103 65.3028 9.8203 67.9628C12.2303 70.7328 17.4803 72.8828 22.3103 73.0828C25.6803 73.2128 28.4603 72.3928 30.1603 70.7428C35.0503 65.9828 33.7403 58.1628 33.7303 58.0928C33.6703 57.7328 33.7003 57.3628 33.8303 57.0228C38.5403 44.4728 31.8103 39.7628 31.5203 39.5728C30.9603 39.1928 30.6003 38.5528 30.6003 37.8828L30.5103 21.1728C28.0503 21.3128 26.1003 22.1328 24.6003 23.6728C20.3203 28.0528 21.0703 36.7228 21.0803 36.8128C21.1803 37.9328 20.3603 38.9228 19.2503 39.0228C18.1503 39.1328 17.1403 38.3128 17.0303 37.1928C16.9903 36.7628 16.0803 26.5728 21.6803 20.8328C24.4003 18.0528 28.1003 16.8028 32.6803 17.1328C33.7403 17.2128 34.5603 18.0828 34.5703 19.1528L34.6703 36.8828C36.9703 38.9128 42.3803 45.3228 37.8303 57.9528C38.1103 60.1828 38.6403 68.1828 33.0103 73.6628C30.6403 75.9628 27.2203 77.1728 23.0803 77.1728H23.0603Z" fill="#3219A2"/>
<path d="M4.23025 60.6426C4.23025 60.6426 1.39025 67.7526 11.2202 70.1326C18.8702 71.9926 28.3202 67.0526 25.4302 61.2826" fill="white"/>
<path d="M14.6203 72.5627C13.3103 72.5627 11.9903 72.4227 10.7403 72.1127C6.76031 71.1527 4.07031 69.3327 2.72031 66.7227C1.02031 63.4227 2.20031 60.2427 2.34031 59.8827C2.76031 58.8427 3.94031 58.3327 4.98031 58.7527C6.02031 59.1727 6.52031 60.3427 6.12031 61.3827C6.09031 61.4527 5.47031 63.2327 6.35031 64.9027C7.14031 66.4027 8.94031 67.4927 11.6903 68.1627C16.2703 69.2727 21.3503 67.5327 23.2103 65.2027C24.2503 63.8927 23.9303 62.8627 23.6003 62.2027C23.1003 61.2027 23.5003 59.9727 24.5103 59.4727C25.5203 58.9727 26.7403 59.3827 27.2403 60.3827C28.4703 62.8327 28.1603 65.5227 26.3903 67.7427C24.0003 70.7427 19.2903 72.5727 14.6103 72.5727L14.6203 72.5627Z" fill="#3219A2"/>
<path d="M6.36032 47.3628C0.380318 49.0428 -0.0796824 57.5828 9.32032 60.4128C21.3303 64.0328 28.3403 59.6428 26.1803 53.0028" fill="white"/>
<path d="M17.2603 63.7329C14.6803 63.7329 11.7903 63.2829 8.73029 62.3529C2.25029 60.4029 -0.0297083 56.103 0.000291692 52.7229C0.0302917 49.2629 2.31029 46.383 5.81029 45.403C6.90029 45.093 8.01029 45.733 8.32029 46.813C8.62029 47.893 7.99029 49.0129 6.91029 49.3229C5.17029 49.8129 4.08029 51.1329 4.07029 52.7629C4.05029 54.6629 5.58029 57.1629 9.90029 58.4629C17.2703 60.6829 21.7803 59.5529 23.5403 57.7529C24.5603 56.7129 24.7903 55.3229 24.2403 53.6229C23.8903 52.5529 24.4803 51.413 25.5503 51.063C26.6203 50.713 27.7703 51.3029 28.1103 52.3729C29.1303 55.5329 28.5403 58.4629 26.4403 60.6029C24.4103 62.6729 21.1903 63.7329 17.2503 63.7329H17.2603Z" fill="#3219A2"/>
<path d="M20.2702 44.953C20.2702 44.953 30.5602 46.413 28.4302 50.913C26.0402 55.963 14.4602 53.903 8.3302 50.063C3.0502 46.753 4.7302 42.113 7.2102 40.203C11.8302 36.653 21.0002 38.723 21.0002 38.723" fill="white"/>
<path d="M21.5703 55.9429C16.6803 55.9429 10.9603 54.1129 7.25025 51.7829C3.76025 49.5929 2.92025 46.9629 2.83025 45.1329C2.69025 42.1929 4.36025 39.8229 5.97025 38.5829C11.2003 34.5629 20.4103 36.5029 21.4503 36.7329C22.5503 36.9829 23.2303 38.0729 22.9803 39.1629C22.7303 40.2529 21.6503 40.9429 20.5503 40.6929C18.2603 40.1729 11.6103 39.3729 8.45025 41.8029C7.63025 42.4329 6.83025 43.6429 6.89025 44.9329C6.96025 46.4829 8.30025 47.6329 9.40025 48.3229C13.8703 51.1329 20.7903 52.5829 24.4903 51.5029C25.5603 51.1929 26.2603 50.6929 26.5803 50.0229C26.7203 49.7329 26.6703 49.6529 26.6303 49.5829C26.0603 48.5129 22.6603 47.3329 19.9603 46.9529C18.8503 46.7929 18.0803 45.7629 18.2403 44.6529C18.4003 43.5429 19.4303 42.7629 20.5403 42.9229C21.8303 43.1029 28.3503 44.1929 30.2103 47.6529C30.9003 48.9329 30.9103 50.3629 30.2503 51.7629C29.4303 53.5029 27.8303 54.7629 25.6303 55.4029C24.4003 55.7629 23.0103 55.9229 21.5603 55.9229L21.5703 55.9429Z" fill="#3219A2"/>
<path d="M36.9302 67.003C35.4102 70.183 31.0602 73.093 26.9102 72.783C28.9602 71.873 30.9002 68.773 31.2102 66.543C29.8702 66.883 28.4902 67.233 27.3502 68.023C26.2102 68.813 23.2302 71.413 23.3802 72.793C23.5002 73.903 27.5202 76.453 28.4302 77.093C30.8602 78.793 35.0202 74.463 36.9902 72.243" fill="white"/>
<path d="M152.29 209.413C152.29 209.413 129.07 216.653 115.64 240.153C116.95 251.533 129.1 249.103 129.1 249.103C129.1 249.103 155.03 239.093 168.77 224.103C168.77 224.103 166.69 204.953 157.72 207.693" fill="white"/>
<path d="M148.54 228.493C147.99 228.493 147.44 228.233 147.1 227.753C144.23 223.763 140.34 220.603 135.85 218.613C134.95 218.213 134.55 217.163 134.95 216.273C135.35 215.373 136.4 214.973 137.29 215.373C142.36 217.623 146.75 221.183 149.99 225.683C150.56 226.483 150.38 227.593 149.59 228.163C149.28 228.393 148.91 228.493 148.55 228.493H148.54Z" fill="#FF3700"/>
<path d="M141.06 230.893C140.58 230.893 140.1 230.703 139.75 230.313C137.16 227.483 133.97 225.083 130.52 223.393C129.64 222.963 129.28 221.893 129.71 221.013C130.14 220.133 131.21 219.773 132.09 220.203C135.99 222.113 139.45 224.713 142.38 227.913C143.04 228.633 142.99 229.763 142.27 230.423C141.93 230.733 141.5 230.883 141.07 230.883L141.06 230.893Z" fill="#FF3700"/>
<path d="M126.48 252.103C124.04 252.103 120.61 251.653 117.76 249.573C114.97 247.543 113.33 244.483 112.86 240.473C112.79 239.883 112.91 239.283 113.21 238.773C127.02 214.593 150.46 207.063 151.45 206.753C152.92 206.293 154.49 207.113 154.94 208.583C155.4 210.053 154.58 211.613 153.11 212.073C152.81 212.173 131.26 219.183 118.53 240.703C118.9 242.663 119.72 244.093 121.01 245.043C123.59 246.933 127.4 246.533 128.33 246.393C130.96 245.343 153.21 236.193 165.81 223.143C165.15 218.773 163.37 212.393 160.67 210.613C160 210.173 159.36 210.093 158.51 210.353C157.04 210.803 155.48 209.973 155.03 208.503C154.58 207.033 155.41 205.473 156.88 205.023C159.31 204.283 161.68 204.603 163.74 205.963C169.85 209.993 171.36 222.403 171.51 223.803C171.6 224.603 171.34 225.403 170.79 225.993C156.76 241.293 131.15 251.293 130.07 251.713C129.92 251.773 129.77 251.813 129.61 251.843C129.49 251.863 128.23 252.113 126.45 252.113L126.48 252.103Z" fill="#3219A2"/>
<path d="M147.88 148.603H163.66V209.863C163.66 214.143 160.19 217.613 155.91 217.613C151.48 217.613 147.88 214.013 147.88 209.583V148.593V148.603Z" fill="#FF3700"/>
<path d="M155.91 220.403C149.95 220.403 145.09 215.553 145.09 209.583V145.803H166.45V209.853C166.45 215.663 161.72 220.393 155.91 220.393V220.403ZM150.68 151.393V209.593C150.68 212.483 153.03 214.833 155.92 214.833C158.66 214.833 160.88 212.603 160.88 209.873V151.403H150.68V151.393Z" fill="#3219A2"/>
<path d="M163.57 199.303C163.57 203.533 160.14 206.513 155.91 206.513C151.53 206.513 147.98 203.413 147.98 199.033V208.743C147.98 213.123 151.53 216.673 155.91 216.673C160.14 216.673 163.57 213.243 163.57 209.013V199.303Z" fill="#FFEA00"/>
<path d="M155.91 218.163C150.71 218.163 146.48 213.933 146.48 208.733V199.023H149.48C149.48 202.433 152.25 205.003 155.91 205.003C159.57 205.003 162.07 202.543 162.07 199.293H165.07V209.003C165.07 214.053 160.96 218.163 155.91 218.163ZM149.47 205.713V208.733C149.47 212.283 152.36 215.163 155.9 215.163C159.44 215.163 162.06 212.403 162.06 209.003V205.853C160.46 207.203 158.31 208.003 155.9 208.003C153.49 208.003 151.13 207.143 149.47 205.703V205.713Z" fill="#3219A2"/>
<path d="M110.27 186.983C110.27 186.983 87.9404 193.053 74.3604 214.923C75.2104 225.783 86.8403 223.903 86.8403 223.903C86.8403 223.903 111.83 215.293 125.42 201.513C125.42 201.513 124.11 183.243 115.49 185.533" fill="white"/>
<path d="M106.11 205.073C105.54 205.073 104.97 204.793 104.63 204.283C102.05 200.403 98.4702 197.273 94.2802 195.233C93.4002 194.803 93.0302 193.743 93.4602 192.863C93.8902 191.983 94.9502 191.613 95.8402 192.043C100.59 194.363 104.65 197.913 107.58 202.313C108.12 203.133 107.9 204.233 107.09 204.773C106.79 204.973 106.45 205.073 106.11 205.073Z" fill="#FF3700"/>
<path d="M98.9202 207.093C98.4202 207.093 97.9202 206.883 97.5702 206.463C95.2102 203.683 92.2702 201.303 89.0602 199.583C88.2002 199.123 87.8702 198.043 88.3402 197.183C88.8002 196.323 89.8802 195.993 90.7402 196.463C94.3902 198.423 97.6002 201.013 100.28 204.173C100.91 204.923 100.82 206.043 100.07 206.673C99.7402 206.953 99.3302 207.093 98.9202 207.093Z" fill="#FF3700"/>
<path d="M84.9503 226.813C82.6003 226.813 78.9203 226.373 75.9703 224.063C73.3603 222.013 71.8803 219.013 71.5803 215.143C71.5303 214.553 71.6803 213.963 71.9903 213.453C85.9903 190.903 108.58 184.543 109.53 184.283C110.79 183.943 112.09 184.523 112.7 185.613C112.66 184.343 113.49 183.163 114.77 182.823C117.15 182.193 119.43 182.593 121.37 183.973C127.09 188.053 128.1 199.953 128.2 201.303C128.26 202.103 127.97 202.893 127.4 203.463C113.51 217.543 88.7903 226.173 87.7403 226.533C87.5903 226.583 87.4403 226.623 87.2803 226.653C87.1803 226.673 86.2703 226.813 84.9403 226.813H84.9503ZM77.2503 215.583C77.5403 217.403 78.2403 218.733 79.4003 219.653C81.7303 221.503 85.2903 221.263 86.2003 221.163C88.8003 220.233 110.12 212.353 122.53 200.453C122.03 196.103 120.49 190.193 118.15 188.523C117.57 188.103 116.99 188.013 116.22 188.223C114.97 188.553 113.68 187.973 113.07 186.883C113.11 188.143 112.29 189.313 111.02 189.663C110.81 189.723 90.1103 195.603 77.2603 215.573L77.2503 215.583Z" fill="#3219A2"/>
<path d="M104.5 151.843H119.51V187.923C119.51 191.993 116.21 195.293 112.14 195.293C107.93 195.293 104.51 191.873 104.51 187.663V151.843H104.5Z" fill="#FF3700"/>
<path d="M112.14 198.083C106.39 198.083 101.72 193.403 101.72 187.663V149.053H122.31V187.923C122.31 193.523 117.75 198.083 112.15 198.083H112.14ZM107.29 154.633V187.663C107.29 190.333 109.46 192.503 112.13 192.503C114.66 192.503 116.71 190.443 116.71 187.923V154.633H107.28H107.29Z" fill="#3219A2"/>
<path d="M119.51 178.293C119.51 182.363 116.21 185.663 112.14 185.663C107.92 185.663 104.51 182.243 104.51 178.033V187.373C104.51 191.593 107.93 195.003 112.14 195.003C116.21 195.003 119.51 191.703 119.51 187.633V178.293Z" fill="#FFEA00"/>
<path d="M112.14 196.503C107.1 196.503 103.01 192.403 103.01 187.373V178.033H106.01C106.01 181.413 108.76 184.163 112.14 184.163C115.52 184.163 118.01 181.533 118.01 178.293H121.01V187.633C121.01 192.523 117.03 196.503 112.14 196.503ZM106 184.793V187.373C106 190.753 108.75 193.503 112.13 193.503C115.51 193.503 118 190.873 118 187.633V184.943C116.43 186.333 114.38 187.173 112.13 187.173C109.88 187.173 107.62 186.273 106 184.803V184.793Z" fill="#3219A2"/>
<path d="M210.17 48.683L134.98 90.113L54.5103 44.203L131.28 2.79297L210.17 48.683Z" fill="#FFEA00"/>
<path d="M134.98 92.9029C134.5 92.9029 134.03 92.7829 133.6 92.5329L53.1304 46.6229C52.2504 46.1229 51.7104 45.1829 51.7204 44.1629C51.7304 43.1529 52.2903 42.2229 53.1903 41.7429L129.95 0.332859C130.8 -0.127141 131.84 -0.107141 132.68 0.372859L211.57 46.2629C212.44 46.7729 212.97 47.7029 212.96 48.7029C212.95 49.7129 212.4 50.6329 211.52 51.1129L136.33 92.5429C135.91 92.7729 135.45 92.8929 134.98 92.8929V92.9029ZM60.2603 44.2729L135 86.9129L204.5 48.6129L131.23 5.99286L60.2603 44.2729Z" fill="#3219A2"/>
<path d="M54.5105 138.403V44.2026L134.98 90.1126V184.313L54.5105 138.403Z" fill="#FFA4DE"/>
<path d="M134.98 187.103C134.5 187.103 134.03 186.983 133.6 186.733L53.1305 140.823C52.2605 140.323 51.7205 139.403 51.7205 138.403V44.2028C51.7205 43.2128 52.2505 42.2928 53.1105 41.7928C53.9705 41.2928 55.0305 41.2928 55.8905 41.7828L136.36 87.6928C137.23 88.1928 137.77 89.1128 137.77 90.1128V184.313C137.77 185.303 137.24 186.223 136.38 186.723C135.95 186.973 135.46 187.103 134.98 187.103ZM57.3005 136.783L132.19 179.503V91.7228L57.3005 49.0028V136.783Z" fill="#3219A2"/>
<path d="M210.17 48.6831L134.98 90.1131V184.313L138.9 182.153L210.17 142.243V48.6831Z" fill="#00D1FF"/>
<path d="M134.98 187.103C134.49 187.103 134 186.973 133.56 186.713C132.71 186.213 132.19 185.293 132.19 184.313V90.1129C132.19 89.0929 132.74 88.1629 133.63 87.6729L208.82 46.2429C209.69 45.7629 210.74 45.7829 211.59 46.2829C212.44 46.7829 212.96 47.7029 212.96 48.6829V142.253C212.96 143.263 212.41 144.193 211.53 144.683L140.26 184.583L136.32 186.753C135.9 186.983 135.44 187.103 134.97 187.103H134.98ZM137.77 91.7529V179.583L207.38 140.613V53.4029L137.77 91.7529Z" fill="#3219A2"/>
<path d="M50.1203 96.5731C50.1203 96.5731 46.4703 72.6231 63.8903 82.5431C78.2403 90.7131 79.5103 96.1031 79.5103 114.403L50.1303 96.5731H50.1203Z" fill="white"/>
<path d="M73.8204 111.163C73.8204 111.163 73.7804 111.163 73.7504 111.163C72.9104 111.123 72.2704 110.423 72.3004 109.583C72.4204 106.803 71.5004 100.963 71.4904 100.903C71.3604 100.073 71.9204 99.303 72.7504 99.173C73.5704 99.043 74.3504 99.603 74.4804 100.433C74.5204 100.683 75.4604 106.633 75.3204 109.713C75.2804 110.523 74.6104 111.163 73.8104 111.163H73.8204Z" fill="#8CEAFF"/>
<path d="M79.5104 116.683C79.1004 116.683 78.6904 116.573 78.3304 116.353L48.9504 98.5231C48.3704 98.1731 47.9804 97.5831 47.8804 96.9131C47.6704 95.5431 46.0204 83.3931 52.1204 79.2031C55.2904 77.0231 59.6404 77.4831 65.0404 80.5631C80.5104 89.3731 81.8104 96.0531 81.8104 114.403C81.8104 115.223 81.3604 115.983 80.6504 116.393C80.3004 116.593 79.9204 116.683 79.5304 116.683H79.5104ZM52.2404 95.1931L77.1904 110.333C76.9604 95.6231 75.0004 91.5031 62.7504 84.5331C60.1704 83.0631 56.6804 81.6031 54.6804 82.9731C52.0604 84.7631 51.7904 91.0231 52.2404 95.2031V95.1931Z" fill="#3219A2"/>
<path d="M72.8304 111.353L63.1904 105.243V93.8633C63.1904 91.1533 66.1704 89.5133 68.4604 90.9633C71.1804 92.6833 72.8304 95.6833 72.8304 98.9133V111.353Z" fill="#3219A2"/>
<path d="M61.9905 95.2532C62.0105 96.4132 62.0705 97.6332 62.6605 98.6332C63.2505 99.6332 64.5705 100.303 65.6105 99.8032C66.5905 99.3332 66.9305 98.1032 67.0105 97.0132C67.0805 96.1332 67.0505 95.2232 66.7505 94.3932C66.4505 93.5632 65.8205 92.8132 64.9805 92.5332C64.1405 92.2532 63.1005 92.5332 62.6405 93.2832" fill="white"/>
<path d="M109.5 130.843C109.5 130.843 105.85 106.893 123.27 116.813C137.62 124.983 138.89 130.373 138.89 148.673L109.51 130.843H109.5Z" fill="white"/>
<path d="M133.2 145.423C133.2 145.423 133.16 145.423 133.13 145.423C132.29 145.383 131.65 144.683 131.68 143.843C131.8 141.063 130.88 135.223 130.87 135.163C130.74 134.333 131.3 133.563 132.13 133.433C132.95 133.303 133.73 133.863 133.86 134.693C133.9 134.943 134.84 140.893 134.7 143.973C134.66 144.783 133.99 145.423 133.19 145.423H133.2Z" fill="#8CEAFF"/>
<path d="M138.89 150.953C138.48 150.953 138.07 150.843 137.71 150.623L108.33 132.793C107.75 132.443 107.36 131.853 107.26 131.183C107.05 129.813 105.4 117.663 111.5 113.473C114.67 111.293 119.01 111.753 124.42 114.833C139.89 123.643 141.19 130.323 141.19 148.673C141.19 149.493 140.74 150.253 140.03 150.663C139.68 150.863 139.3 150.953 138.91 150.953H138.89ZM111.63 129.453L136.58 144.593C136.35 129.883 134.39 125.763 122.14 118.793C119.56 117.323 116.07 115.863 114.07 117.233C111.45 119.023 111.18 125.283 111.63 129.463V129.453Z" fill="#3219A2"/>
<path d="M131.54 144.912L121.9 138.802V127.422C121.9 124.712 124.88 123.072 127.17 124.522C129.89 126.242 131.54 129.242 131.54 132.472V144.912Z" fill="#3219A2"/>
<path d="M120.71 128.813C120.73 129.973 120.79 131.193 121.38 132.193C121.97 133.193 123.29 133.863 124.33 133.363C125.31 132.893 125.65 131.663 125.73 130.573C125.8 129.693 125.77 128.783 125.47 127.953C125.17 127.123 124.54 126.373 123.7 126.093C122.86 125.813 121.82 126.093 121.36 126.843" fill="white"/>
<path d="M77.2002 146.523C78.6802 150.773 80.4602 154.983 83.2002 158.553C85.9402 162.123 89.7402 165.023 94.1402 165.963C98.5402 166.903 103.53 165.613 106.4 162.143" fill="#FFA4DE"/>
<path d="M97.0303 169.063C95.8803 169.063 94.7203 168.943 93.5603 168.693C88.8603 167.693 84.4003 164.693 80.9903 160.253C77.8003 156.103 75.8803 151.233 74.5703 147.443C74.0603 145.983 74.8303 144.393 76.2903 143.893C77.7503 143.383 79.3303 144.153 79.8403 145.613C81.0203 149.003 82.7203 153.343 85.4203 156.853C88.0203 160.243 91.3303 162.513 94.7303 163.243C98.3703 164.023 102.19 162.863 104.26 160.373C105.24 159.183 107 159.023 108.19 160.003C109.38 160.983 109.54 162.743 108.56 163.933C105.85 167.213 101.56 169.063 97.0403 169.063H97.0303Z" fill="#3219A2"/>
<path d="M112.08 143.063C106.64 144.263 100.91 144.313 95.4803 143.133C86.8303 141.243 79.0403 136.233 74.1303 129.383L73.7903 135.063C76.8303 139.693 85.8903 145.303 85.8903 145.303C86.3403 151.853 89.5203 157.173 92.3803 158.053C95.3103 158.963 98.5403 157.913 101.28 156.553C106.38 154.023 110.28 149.893 114.3 145.983C113.42 144.813 112.97 144.223 112.08 143.053V143.063Z" fill="#3219A2"/>
<path d="M89.1604 145.333C92.4204 146.573 95.9104 147.213 99.4004 147.223C96.8504 147.963 94.3104 148.713 91.7604 149.453" fill="white"/>
<path d="M89.2003 133.623C87.1303 133.623 85.0503 132.953 83.4203 131.653C80.6203 129.413 79.3403 125.443 80.3203 121.983C81.3003 118.533 84.4703 115.813 88.0303 115.373C89.2903 115.223 90.4203 116.113 90.5703 117.363C90.7203 118.613 89.8303 119.753 88.5803 119.903C86.8203 120.123 85.1903 121.513 84.7103 123.223C84.2303 124.933 84.8803 126.973 86.2703 128.073C87.6603 129.183 89.7903 129.373 91.3503 128.523C92.4603 127.913 93.3203 126.773 93.6303 125.453C93.9203 124.223 95.1503 123.463 96.3803 123.763C97.6103 124.053 98.3603 125.283 98.0703 126.513C97.4603 129.063 95.7603 131.313 93.5303 132.533C92.2003 133.253 90.7003 133.603 89.1903 133.603L89.2003 133.623Z" fill="#3219A2"/>
<path d="M86.8902 125.373C88.2488 125.373 89.3502 124.272 89.3502 122.913C89.3502 121.555 88.2488 120.453 86.8902 120.453C85.5316 120.453 84.4302 121.555 84.4302 122.913C84.4302 124.272 85.5316 125.373 86.8902 125.373Z" fill="white"/>
<path d="M84.5003 76.1428C84.2103 76.1428 83.9103 76.0728 83.6403 75.9128L62.9103 64.3428C62.0503 63.8628 61.7503 62.7828 62.2203 61.9228C62.7003 61.0628 63.7803 60.7628 64.6403 61.2328L85.3703 72.8028C86.2303 73.2828 86.5303 74.3628 86.0603 75.2228C85.7303 75.8028 85.1303 76.1328 84.5103 76.1328L84.5003 76.1428Z" fill="white"/>
<path d="M151.23 30.3928C150.93 30.3928 150.62 30.3128 150.34 30.1528L130.47 18.6528L111.91 28.7328C111.05 29.2028 109.97 28.8828 109.5 28.0228C109.03 27.1628 109.35 26.0828 110.21 25.6128L130.52 14.5728L152.11 27.0628C152.96 27.5528 153.25 28.6428 152.76 29.4928C152.43 30.0628 151.83 30.3828 151.22 30.3828L151.23 30.3928Z" fill="white"/>
<path d="M176.88 123.503L190.93 131.183C194.1 132.913 195.57 136.673 194.43 140.103L189.08 156.103L177.31 151.303L180.69 140.983L169.78 134.653C169.78 134.653 168.4 125.453 176.89 123.503H176.88Z" fill="#FFEA00"/>
<path d="M190.77 159.803L173.84 152.903L177.33 142.263L167.21 136.393L167.01 135.063C166.4 131.003 167.54 122.783 176.25 120.783L177.28 120.543L192.25 128.733C196.61 131.113 198.63 136.263 197.06 140.983L190.77 159.813V159.803ZM180.76 149.693L187.36 152.383L191.77 139.203C192.49 137.053 191.57 134.703 189.58 133.623L176.55 126.503C173.04 127.793 172.48 131.123 172.46 132.993L184.04 139.713L180.76 149.703V149.693Z" fill="#3219A2"/>
<path d="M172.58 150.713C172.58 150.713 176.32 145.293 183.24 147.143C191.11 149.243 201.87 165.563 179.42 169.223" fill="white"/>
<path d="M179.42 171.503C178.32 171.503 177.35 170.703 177.17 169.583C176.97 168.343 177.81 167.163 179.06 166.963C183.25 166.283 190.31 164.393 190.56 159.423C190.77 155.263 186.31 150.313 182.66 149.343C177.44 147.953 174.58 151.853 174.46 152.023C173.73 153.043 172.31 153.293 171.29 152.573C170.26 151.853 170 150.453 170.71 149.413C170.9 149.133 175.46 142.683 183.84 144.923C189.32 146.393 195.45 153.143 195.12 159.643C194.95 163.153 192.72 169.353 179.8 171.463C179.68 171.483 179.55 171.493 179.43 171.493L179.42 171.503Z" fill="#3219A2"/>
<path d="M176.18 186.813C174.37 188.353 172.53 189.913 170.34 190.833C168.15 191.753 165.53 191.953 163.47 190.783C161.41 189.613 160.22 186.823 161.3 184.713C165.97 183.423 171.13 181.753 173.43 177.483C175.72 173.223 175.28 167.273 173.8 162.673C163.86 161.303 161.65 154.183 163.23 150.253L175.99 151.153" fill="white"/>
<path d="M166.74 193.883C165.16 193.883 163.65 193.513 162.34 192.763C159.09 190.913 157.69 186.753 159.27 183.673C159.56 183.103 160.08 182.683 160.69 182.513C165.11 181.293 169.59 179.803 171.42 176.403C173.23 173.053 172.96 168.373 172.01 164.683C167.41 163.733 163.88 161.453 161.97 158.153C160.35 155.363 160.04 152.093 161.12 149.403C161.49 148.483 162.41 147.903 163.4 147.983L176.16 148.883C177.42 148.973 178.37 150.063 178.28 151.323C178.19 152.583 177.11 153.533 175.84 153.443L165.06 152.683C165.04 153.623 165.27 154.743 165.92 155.873C166.91 157.573 169.13 159.733 174.12 160.423C174.99 160.543 175.72 161.153 175.98 161.993C177.94 168.123 177.74 174.323 175.44 178.583C172.97 183.163 167.96 185.173 163.18 186.573C163.22 187.403 163.78 188.353 164.6 188.823C165.85 189.533 167.66 189.513 169.45 188.753C171.33 187.963 173.04 186.503 174.7 185.093C175.66 184.273 177.1 184.393 177.92 185.353C178.74 186.313 178.62 187.753 177.66 188.573C175.83 190.123 173.76 191.893 171.23 192.953C169.73 193.583 168.2 193.903 166.74 193.903V193.883Z" fill="#3219A2"/>
<path d="M186.38 158.223C195.1 162.503 199 176.633 195.96 184.503C192.92 192.373 183.94 197.443 175.64 195.973" fill="white"/>
<path d="M178.55 198.503C177.44 198.503 176.34 198.413 175.24 198.213C174 197.993 173.17 196.813 173.39 195.563C173.61 194.323 174.79 193.503 176.04 193.713C183.23 194.993 191.21 190.483 193.84 183.673C196.51 176.753 192.82 163.923 185.38 160.263C184.25 159.703 183.78 158.343 184.34 157.203C184.9 156.063 186.26 155.603 187.4 156.163C197.17 160.963 201.52 176.463 198.1 185.313C195.07 193.163 186.89 198.493 178.56 198.493L178.55 198.503Z" fill="#3219A2"/>
<path d="M167.44 192.103C168.7 194.983 179.75 194.143 182.87 189.723L167.44 192.103Z" fill="white"/>
<path d="M172.28 196.063C171.73 196.063 171.2 196.033 170.72 195.993C167.21 195.633 165.86 194.183 165.36 193.023C164.85 191.873 165.38 190.523 166.53 190.013C167.63 189.533 168.9 189.983 169.45 191.023C169.92 191.323 171.68 191.713 174.27 191.373C177.32 190.983 180.02 189.793 181 188.403C181.73 187.373 183.15 187.123 184.18 187.853C185.21 188.583 185.46 190.003 184.73 191.033C182.18 194.643 176.4 196.053 172.27 196.053L172.28 196.063Z" fill="#3219A2"/>
<path d="M174.67 158.813C178.17 164.543 176.2 173.613 176.18 176.093C176.18 176.543 175.16 181.563 171.08 186.003C180.73 182.003 177.93 188.493 177.93 188.493C179.59 189.373 182.58 175.553 184.2 174.593C185.82 173.643 186.89 171.813 186.92 169.933C186.95 167.953 185.91 166.083 184.52 164.663" fill="white"/>
<path d="M171.54 191.473C171.54 191.473 174.62 191.293 179.26 187.093C183.9 182.893 178.06 190.403 178.06 190.403L174.27 191.363L171.54 191.463V191.473Z" fill="white"/>
</svg>
